# File created by Blade
# Date/Time:  Tue Sep 23 19:15:59 2014
# Frame Rate: 120.000 fps
#------------------------------------------------------
:FULLY-SPECIFIED
:DEGREES
2081
root -1.669457 35.317548 -8.638131 67.669022 -11.689308 -56.724745
Spine -31.747413 -2.545675 43.451502
Head -4.292813 -17.501811 36.180536
LeftShoulder 5.638089 36.805674 37.182311
LeftArm 87.263831 16.586373 -45.338700
LeftForeArm 21.093489 -0.000000 56.588506
LeftHand 45.900750 -0.000000 -1.848874
LeftHandThumb1 -26.253704 0.000000 33.147579
RightShoulder -19.478053 -44.368195 3.364840
RightArm 46.836918 22.671092 60.246299
RightForeArm -1.519232 0.000000 66.020574
RightHand -5.712061 0.000000 23.995604
RightHandThumb1 -24.326973 -0.000000 -32.862282
LeftUpLeg -43.721082 37.244236 41.022478
LeftLeg 16.809534 -0.000000 -0.000000
LeftFoot -4.820781 21.040058 13.087002
LeftToeBase 2.118056 -0.000000 -0.000000
RightUpLeg -76.608767 -50.016197 -46.177916
RightLeg 121.473417 -0.000000 -0.000000
RightFoot 40.713874 7.143490 -5.049838
RightToeBase 47.145973 -0.000000 -0.000000
2082
root -1.642517 35.307253 -8.620964 67.715791 -12.113828 -56.587225
Spine -31.585604 -2.519462 43.229016
Head -4.522010 -17.470908 36.011286
LeftShoulder 5.705270 36.876262 37.175784
LeftArm 87.199002 16.521085 -45.479909
LeftForeArm 20.792702 -0.000000 56.349146
LeftHand 45.990693 -0.000000 -1.830474
LeftHandThumb1 -26.253704 0.000000 33.147579
RightShoulder -18.988661 -44.522768 3.463409
RightArm 46.795828 22.454248 60.130545
RightForeArm -0.806377 -0.000000 65.567858
RightHand -5.250090 -0.000000 23.153567
RightHandThumb1 -24.326973 -0.000000 -32.862282
LeftUpLeg -43.451207 36.753974 40.959765
LeftLeg 16.944939 -0.000000 -0.000000
LeftFoot -5.814433 20.609532 12.061538
LeftToeBase 2.382116 -0.000000 -0.000000
RightUpLeg -78.714076 -50.210079 -44.295459
RightLeg 121.953352 -0.000000 -0.000000
RightFoot 41.168543 7.061306 -4.866570
RightToeBase 47.197158 -0.000000 -0.000000
2083
root -1.610858 35.294548 -8.607541 67.833678 -12.583800 -56.400925
Spine -31.489265 -2.464742 42.955892
Head -4.758071 -17.404520 35.808544
LeftShoulder 5.755629 36.925789 37.207748
LeftArm 87.114002 16.506268 -45.576967
LeftForeArm 20.495900 -0.000000 56.188253
LeftHand 46.025474 0.000000 -1.721701
LeftHandThumb1 -26.253704 0.000000 33.147579
RightShoulder -18.457722 -44.712930 3.536218
RightArm 46.752880 22.274326 60.105470
RightForeArm -0.099920 0.000000 65.198307
RightHand -4.875860 -0.000000 22.605209
RightHandThumb1 -24.326973 -0.000000 -32.862282
LeftUpLeg -43.316069 36.306500 40.760298
LeftLeg 17.096869 -0.000000 -0.000000
LeftFoot -6.752522 19.884655 11.087522
LeftToeBase 2.076836 -0.000000 -0.000000
RightUpLeg -81.072275 -50.452140 -42.236904
RightLeg 122.395132 -0.000000 -0.000000
RightFoot 41.680105 6.913589 -4.737476
RightToeBase 47.042957 -0.000000 -0.000000
2084
root -1.572555 35.283035 -8.590732 68.017912 -13.012423 -56.177737
Spine -31.446208 -2.402104 42.740976
Head -5.088518 -17.254990 35.612915
LeftShoulder 5.694420 37.047460 37.166731
LeftArm 87.130333 16.482828 -45.633427
LeftForeArm 20.040934 -0.000000 56.068329
LeftHand 46.077869 -0.000000 -1.872945
LeftHandThumb1 -26.253704 0.000000 33.147579
RightShoulder -17.777874 -44.860237 3.460155
RightArm 46.556049 22.074232 60.108942
RightForeArm 0.526698 -0.000000 64.935161
RightHand -4.603955 0.000000 22.251692
RightHandThumb1 -24.326973 -0.000000 -32.862282
LeftUpLeg -43.271094 35.740928 40.631129
LeftLeg 17.314396 -0.000000 -0.000000
LeftFoot -8.024161 18.666468 9.618324
LeftToeBase 1.844502 -0.000000 -0.000000
RightUpLeg -83.510946 -50.679100 -39.989997
RightLeg 122.778982 -0.000000 -0.000000
RightFoot 41.743362 6.341063 -4.178381
RightToeBase 47.504082 -0.000000 -0.000000
2085
root -1.533489 35.267043 -8.568242 68.113535 -13.433273 -55.891017
Spine -31.391087 -2.412244 42.512194
Head -5.399720 -17.100049 35.433737
LeftShoulder 5.699801 37.138863 37.143982
LeftArm 87.144571 16.445882 -45.698818
LeftForeArm 20.193727 0.000000 55.946730
LeftHand 46.153887 -0.000000 -1.884392
LeftHandThumb1 -26.253704 0.000000 33.147579
RightShoulder -17.162782 -45.180995 3.490964
RightArm 46.591948 21.957470 60.090627
RightForeArm 1.224594 -0.000000 64.525938
RightHand -4.302443 -0.000000 21.925740
RightHandThumb1 -24.326973 -0.000000 -32.862282
LeftUpLeg -43.140432 34.913239 40.649462
LeftLeg 17.550784 -0.000000 -0.000000
LeftFoot -9.037170 17.139441 8.322577
LeftToeBase 1.372324 -0.000000 -0.000000
RightUpLeg -85.900938 -50.850686 -37.775598
RightLeg 123.157002 -0.000000 -0.000000
RightFoot 41.776237 6.185307 -4.021551
RightToeBase 47.194856 -0.000000 -0.000000
2086
root -1.487483 35.244231 -8.541678 68.203798 -13.855242 -55.527392
Spine -31.368551 -2.467041 42.290976
Head -5.732698 -16.855698 35.235737
LeftShoulder 5.635793 37.150449 37.108001
LeftArm 87.132684 16.514075 -45.739427
LeftForeArm 20.405016 -0.000000 55.897852
LeftHand 45.976639 -0.000000 -1.607363
LeftHandThumb1 -26.253704 0.000000 33.147579
RightShoulder -16.433445 -45.518977 3.420716
RightArm 46.662198 21.855913 60.072711
RightForeArm 2.127864 -0.000000 63.966631
RightHand -3.944037 -0.000000 21.665583
RightHandThumb1 -24.326973 -0.000000 -32.862282
LeftUpLeg -43.128241 33.958699 40.637109
LeftLeg 17.917488 -0.000000 -0.000000
LeftFoot -10.007237 15.552677 6.946944
LeftToeBase 0.893663 -0.000000 -0.000000
RightUpLeg -88.310918 -51.038333 -35.527916
RightLeg 123.455231 -0.000000 -0.000000
RightFoot 41.694376 6.067041 -4.001665
RightToeBase 47.021186 -0.000000 -0.000000
2087
root -1.438470 35.214709 -8.512033 68.227004 -14.338615 -55.224428
Spine -31.216352 -2.534937 42.056781
Head -6.038700 -16.615275 35.033474
LeftShoulder 5.573727 37.181914 37.017396
LeftArm 87.140657 16.525403 -45.735808
LeftForeArm 20.330559 -0.000000 55.837023
LeftHand 46.007484 -0.000000 -1.680154
LeftHandThumb1 -26.253704 0.000000 33.147579
RightShoulder -15.672509 -45.844980 3.327856
RightArm 46.849969 21.719133 59.955668
RightForeArm 3.163663 -0.000000 63.180577
RightHand -3.669266 -0.000000 21.541226
RightHandThumb1 -24.326973 -0.000000 -32.862282
LeftUpLeg -42.920310 32.791745 40.835302
LeftLeg 18.338615 -0.000000 -0.000000
LeftFoot -10.791087 13.956801 5.672148
LeftToeBase 1.289421 -0.000000 -0.000000
RightUpLeg -90.705854 -51.029933 -33.290247
RightLeg 123.708081 -0.000000 -0.000000
RightFoot 41.458178 5.793796 -3.877567
RightToeBase 47.138854 -0.000000 -0.000000
